<?xml version="1.0"?>
<svg xmlns="http://www.w3.org/2000/svg" enable-background="new 0 0 100 100" height="512px" viewBox="0 0 100 100" width="512px" class=""><g><path d="m19.262413 19.2422504c-1.9073772 1.9073772-1.9074402 4.9998283-.0000629 6.9072056l60.9748688 60.974865c1.9073715 1.9073792 4.9999542 1.9074402 6.9073257.0000687 1.9074402-1.9074402 1.9073792-5.0000229 0-6.9073944l-60.9748611-60.9748707c-1.9073773-1.9073773-4.9998303-1.9073143-6.9072705.0001258z" fill="#e7a14e" data-original="#E7A14E" class="active-path" style="fill:#696464" data-old_color="#A5A5B3"/><path d="m37.9356079 12.7055635c-9.1980457 7.6000547-17.6102619 15.9858141-25.2387104 25.1555901-1.8230095 2.191433-1.6683779 5.4167366.3473291 7.4324455l10.4252405 10.4252396c2.015707 2.0157051 5.2410126 2.1703377 7.4324436.3473282 9.1698399-7.6282616 17.5555973-16.0404778 25.1555882-25.2387085 1.8112793-2.1921787 1.6519661-5.407814-.3588715-7.4186535l-10.3444938-10.3444929c-2.0107155-2.0107145-5.2263489-2.1700268-7.4185257-.3587485z" fill="#293b44" data-original="#293B44" class="" style="fill:#B3B4B4" data-old_color="#B3B3B3"/><path d="m40.7269325 15.4968891c-8.9711113 7.8269882-17.37957 16.2165051-25.2269058 25.1673946-1.87533 2.1391106-2.2006893 4.8844223-.7574911 6.3276215l7.0286493 7.0286484c1.4431973 1.4431992 4.1885128 1.1178398 6.3276234-.7574883 8.9509163-7.8471832 17.3404312-16.2556458 25.1673927-25.2269058 1.8653717-2.1380882 2.1853409-4.8744392.7456284-6.3141518l-6.9708366-6.9708357c-1.439621-1.4396238-4.175972-1.1196536-6.3140603.7457171z" fill="#344d5b" data-original="#344D5B" class="" style="fill:#CAC4C4" data-old_color="#A5A5A5"/></g> </svg>
