<?xml version="1.0" encoding="iso-8859-1"?>
<!-- Generator: Adobe Illustrator 19.0.0, SVG Export Plug-In . SVG Version: 6.00 Build 0)  -->
<svg version="1.1" id="Capa_1" xmlns="http://www.w3.org/2000/svg" xmlns:xlink="http://www.w3.org/1999/xlink" x="0px" y="0px"
	 viewBox="0 0 480.009 480.009" style="enable-background:new 0 0 480.009 480.009;" xml:space="preserve">
<g>
	<g>
		<path d="M408.005,0.01h-400c-4.418,0-8,3.582-8,8v464c0,4.418,3.582,8,8,8h400c4.418,0,8-3.582,8-8v-464
			C416.005,3.591,412.423,0.01,408.005,0.01z M400.005,464.01h-384v-448h384V464.01z"/>
	</g>
</g>
<g>
	<g>
		<path d="M479.437,45.041l-16-40c-1.635-4.105-6.288-6.106-10.393-4.471c-2.041,0.813-3.658,2.43-4.471,4.471l-16,40
			c-0.376,0.944-0.569,1.952-0.568,2.968v408c0,13.255,10.745,24,24,24s24-10.745,24-24v-408
			C480.006,46.993,479.813,45.986,479.437,45.041z M464.005,456.01c0,4.418-3.582,8-8,8s-8-3.582-8-8v-16h16V456.01z
			 M464.005,424.01h-16v-344h16V424.01z M464.005,64.01h-16V49.546l8-20l8,20V64.01z"/>
	</g>
</g>
<g>
	<g>
		<path d="M120.005,80.01c-48.601,0-88,39.399-88,88c-0.306,48.295,38.597,87.694,86.893,88c0.369,0.002,0.738,0.002,1.107,0
			c48.601,0,88-39.399,88-88S168.606,80.01,120.005,80.01z M128.005,96.45c13.524,1.467,26.344,6.778,36.944,15.304l-36.944,36.944
			V96.45z M63.756,212.949c-24.819-31.068-19.752-76.374,11.316-101.193c10.62-8.484,23.424-13.788,36.932-15.299v71.552
			c0.016,0.93,0.195,1.851,0.528,2.72c0.04,0.104,0,0.216,0.08,0.32c0.08,0.104,0.208,0.288,0.288,0.448
			c0.308,0.634,0.701,1.224,1.168,1.752c0.112,0.128,0.16,0.296,0.28,0.416l50.6,50.6C133.88,249.084,88.575,244.018,63.756,212.949
			z M176.269,212.953l-44.952-44.944l44.952-44.944C197.251,149.355,197.251,186.664,176.269,212.953z"/>
	</g>
</g>
<g>
	<g>
		<rect x="352.005" y="128.01" width="32" height="16"/>
	</g>
</g>
<g>
	<g>
		<rect x="256.005" y="128.01" width="80" height="16"/>
	</g>
</g>
<g>
	<g>
		<rect x="336.005" y="192.01" width="48" height="16"/>
	</g>
</g>
<g>
	<g>
		<rect x="256.005" y="192.01" width="64" height="16"/>
	</g>
</g>
<g>
	<g>
		<rect x="304.005" y="160.01" width="80" height="16"/>
	</g>
</g>
<g>
	<g>
		<rect x="256.005" y="160.01" width="32" height="16"/>
	</g>
</g>
<g>
	<g>
		<path d="M237.685,130.33c-3.188-3.011-8.172-3.011-11.36,0c-1.462,1.533-2.291,3.562-2.32,5.68
			c-0.021,2.128,0.815,4.175,2.32,5.68c0.796,0.704,1.684,1.296,2.64,1.76c0.967,0.383,2,0.573,3.04,0.56
			c4.374,0.044,7.956-3.465,8-7.839c0.001-0.054,0.001-0.107,0-0.161C239.975,133.891,239.147,131.863,237.685,130.33z"/>
	</g>
</g>
<g>
	<g>
		<path d="M239.365,164.97c-0.406-0.969-0.974-1.862-1.68-2.64c-3.208-2.96-8.152-2.96-11.36,0c-0.723,0.765-1.293,1.661-1.68,2.64
			c-1.276,2.977-0.61,6.43,1.68,8.72c3.111,3.137,8.177,3.158,11.314,0.047c1.526-1.513,2.379-3.577,2.366-5.727
			C240.032,166.96,239.813,165.919,239.365,164.97z"/>
	</g>
</g>
<g>
	<g>
		<path d="M232.005,192.01c-4.418,0-8,3.582-8,8c-0.021,2.128,0.815,4.175,2.32,5.68c3.111,3.137,8.177,3.158,11.314,0.047
			c1.526-1.513,2.379-3.577,2.366-5.727C240.005,195.591,236.423,192.01,232.005,192.01z"/>
	</g>
</g>
<g>
	<g>
		<rect x="256.005" y="40.01" width="32" height="16"/>
	</g>
</g>
<g>
	<g>
		<rect x="128.005" y="40.01" width="112" height="16"/>
	</g>
</g>
<g>
	<g>
		<path d="M320.005,432.01h-272v-152c0-4.418-3.582-8-8-8s-8,3.582-8,8v160c0,4.418,3.582,8,8,8h280c4.418,0,8-3.582,8-8
			S324.423,432.01,320.005,432.01z"/>
	</g>
</g>
<g>
	<g>
		<path d="M301.186,369.906c-0.091-0.074-0.183-0.146-0.278-0.216l-15.2-11.824l16.952-25.424c2.452-3.676,1.46-8.644-2.216-11.096
			s-8.644-1.46-11.096,2.216l-16.304,24.448l-44.128-34.328c-2.802-2.191-6.713-2.269-9.6-0.192l-52.08,37.192l-27.696-13.848
			c-2.251-1.125-4.901-1.125-7.152,0l-30.4,15.2l-24.744-22c-3.3-2.938-8.358-2.644-11.296,0.656
			c-2.938,3.3-2.644,8.358,0.656,11.296l20,17.752l-18.232,9.112c-3.935,1.994-5.513,6.797-3.528,10.736
			c1.972,3.954,6.776,5.559,10.73,3.587c0.002-0.001,0.004-0.002,0.006-0.003l24-12l39.144,34.8c2.141,1.899,5.134,2.509,7.848,1.6
			l45.656-15.2l53.6,15.32c0.708,0.202,1.44,0.31,2.176,0.32c2.674,0,5.172-1.335,6.656-3.56l22.144-33.24l14.28,11.104
			c3.426,2.789,8.465,2.273,11.255-1.153S304.613,372.695,301.186,369.906z M244.589,390.753l-50.4-14.4
			c-1.551-0.44-3.199-0.401-4.728,0.112l-43.616,14.528l-30.904-27.472l21.064-10.568l28.424,14.256
			c2.651,1.321,5.815,1.068,8.224-0.656l51.152-36.528l40.344,31.384L244.589,390.753z"/>
	</g>
</g>
<g>
	<g>
		<path d="M376.005,320.01h-32c-4.418,0-8,3.582-8,8s3.582,8,8,8h32c4.418,0,8-3.582,8-8S380.423,320.01,376.005,320.01z"/>
	</g>
</g>
<g>
	<g>
		<path d="M376.005,368.01h-32c-4.418,0-8,3.582-8,8s3.582,8,8,8h32c4.418,0,8-3.582,8-8S380.423,368.01,376.005,368.01z"/>
	</g>
</g>
<g>
</g>
<g>
</g>
<g>
</g>
<g>
</g>
<g>
</g>
<g>
</g>
<g>
</g>
<g>
</g>
<g>
</g>
<g>
</g>
<g>
</g>
<g>
</g>
<g>
</g>
<g>
</g>
<g>
</g>
</svg>
