<svg height="511pt" viewBox="0 -22 511.99869 511" width="511pt" xmlns="http://www.w3.org/2000/svg"><path d="m508.5625 285.925781-31.980469-38.722656c-4.78125-5.789063-13.105469-7.152344-19.484375-3.1875l-42.226562 26.25c-7.035156 4.371094-9.191406 13.621094-4.820313 20.65625 4.375 7.039063 13.625 9.195313 20.660157 4.820313l13.421874-8.34375c-11.144531 41.46875-35.125 78.734374-69.46875 107.152343-48.4375 40.082031-112.542968 52.785157-171.46875 33.980469-36.632812-11.6875-67.566406-31.757812-91.941406-59.648438-22.660156-25.917968-38.476562-57.773437-45.746094-92.125-1.71875-8.101562-9.679687-13.285156-17.78125-11.566406-8.105468 1.714844-13.285156 9.675782-11.570312 17.78125 17.589844 83.097656 76.625 148.195313 157.917969 174.136719 20.960937 6.6875 42.46875 9.964844 63.847656 9.964844 48.703125 0 96.714844-17.011719 135.871094-49.414063 40.257812-33.3125 68.058593-77.339844 80.324219-126.335937l11.316406 13.703125c2.96875 3.59375 7.253906 5.449218 11.574218 5.449218 3.363282 0 6.746094-1.125 9.542969-3.433593 6.386719-5.277344 7.289063-14.730469 2.011719-21.117188zm0 0" fill="#00fe92"/><path d="m46.992188 226.917969c2.714843 0 5.457031-.734375 7.910156-2.261719l42.222656-26.25c7.039062-4.371094 9.195312-13.621094 4.820312-20.65625-4.371093-7.035156-13.621093-9.195312-20.65625-4.820312l-13.84375 8.601562c9.582032-37.566406 29.535157-71.359375 58.703126-99.023438 25.925781-24.585937 57.867187-41.289062 92.382812-48.304687 34.523438-7.019531 70.109375-4.023437 102.898438 8.664063 33.171874 12.832031 61.171874 32.902343 83.214843 59.652343 20.601563 24.996094 35.117188 55.273438 41.976563 87.554688 1.722656 8.101562 9.6875 13.277343 17.789062 11.554687 8.105469-1.722656 13.277344-9.6875 11.554688-17.792968-7.855469-36.976563-24.515625-71.691407-48.167969-100.394532-25.359375-30.773437-57.503906-53.839844-95.542969-68.554687-38.148437-14.757813-79.542968-18.242188-119.703125-10.082031-40.019531 8.136718-77.039062 27.480468-107.042969 55.933593-21.546874 20.4375-38.84375 44.085938-51.402343 70.296875-7.089844 14.792969-12.570313 30.203125-16.421875 46.066406l-11.117188-13.460937c-5.277344-6.386719-14.730468-7.289063-21.117187-2.011719-6.386719 5.273438-7.289063 14.730469-2.015625 21.117188l31.984375 38.722656c2.941406 3.566406 7.226562 5.449219 11.574219 5.449219zm0 0" fill="#00fe92"/><g fill="#00db7f"><path d="m508.5625 285.925781-31.980469-38.722656c-4.78125-5.789063-13.105469-7.152344-19.484375-3.1875l-42.226562 26.25c-7.035156 4.371094-9.191406 13.621094-4.820313 20.65625 4.375 7.039063 13.625 9.195313 20.660157 4.820313l13.421874-8.34375c-11.144531 41.46875-35.125 78.734374-69.46875 107.152343-34.191406 28.292969-76.191406 42.921875-118.664062 42.476563v30.027344c.640625.007812 1.277344.019531 1.917969.019531 48.703125 0 96.714843-17.011719 135.871093-49.414063 40.257813-33.3125 68.058594-77.339844 80.324219-126.335937l11.320313 13.703125c2.964844 3.59375 7.253906 5.449218 11.574218 5.449218 3.363282 0 6.746094-1.125 9.542969-3.433593 6.386719-5.277344 7.289063-14.730469 2.011719-21.117188zm0 0"/><path d="m404.644531 102.523438c20.601563 24.996093 35.117188 55.273437 41.976563 87.554687 1.722656 8.101563 9.6875 13.277344 17.789062 11.550781 8.105469-1.71875 13.277344-9.683594 11.554688-17.789062-7.855469-36.976563-24.515625-71.695313-48.167969-100.398438-25.359375-30.773437-57.503906-53.835937-95.542969-68.550781-24.476562-9.46875-50.289062-14.289063-76.253906-14.378906v30c22.28125.089843 44.429688 4.230469 65.429688 12.355469 33.171874 12.835937 61.171874 32.90625 83.214843 59.65625zm0 0"/></g></svg>